<svg width="24" height="24" viewBox="0 0 24 24" fill="none" xmlns="http://www.w3.org/2000/svg">
<path d="M14.453 20.25V3.75M8.96 14.25L6.75 12M6.75 12L8.96 9.75M6.75 12H11.45M20.25 16.75C20.25 17.6783 19.8813 18.5685 19.2249 19.2249C18.5685 19.8813 17.6783 20.25 16.75 20.25H7.25C6.32174 20.25 5.4315 19.8813 4.77513 19.2249C4.11875 18.5685 3.75 17.6783 3.75 16.75V7.25C3.75 6.32174 4.11875 5.4315 4.77513 4.77513C5.4315 4.11875 6.32174 3.75 7.25 3.75H16.75C17.6783 3.75 18.5685 4.11875 19.2249 4.77513C19.8813 5.4315 20.25 6.32174 20.25 7.25V16.75Z" stroke="currentColor" stroke-width="2" stroke-linecap="round" stroke-linejoin="round"/>
</svg>
