<svg width="96" height="96" viewBox="0 0 96 96" fill="none" xmlns="http://www.w3.org/2000/svg">
<path d="M73.7266 30.1992C74.6157 31.0088 75.5731 31.7333 76.5036 32.4937L83.3223 38.017C83.6005 38.243 84.3574 38.617 84.4566 38.9602L84.3893 39.0517C84.0496 38.8218 82.6793 39.0488 82.2177 39.0498L76.8286 39.0532C75.8058 39.0528 74.7415 39.116 73.7266 38.9988C73.7262 36.0665 73.7583 33.1312 73.7266 30.1992Z" fill="#6E41E2"/>
<path d="M22.5653 29.7617L22.5657 35.8557C22.5657 36.8547 22.5968 37.8638 22.5653 38.8617C19.2216 38.8478 15.1537 38.8583 11.8558 39.0227C11.8099 38.9547 11.8092 38.8566 11.7969 38.776C12.1337 38.2174 13.806 37.053 14.3758 36.5773L19.6388 32.1842C20.4484 31.5182 21.7472 30.2775 22.5653 29.7617Z" fill="#6E41E2"/>
<path d="M34.4844 20.0678C35.5882 19.1119 36.7336 18.2255 37.8736 17.3155L42.1559 13.8756C43.544 12.7721 46.4994 9.9728 48.2154 10.0729C49.6914 10.1591 51.3937 11.96 52.4859 12.8314L58.1079 17.3233C59.0244 18.0575 60.8757 19.2923 61.5837 20.0678C59.4496 20.1389 57.2893 20.0678 55.1518 20.0676L36.5643 20.0689C35.969 20.0699 35.0253 20.1717 34.4844 20.0678Z" fill="#6E41E2"/>
<path d="M11.8035 38.7773C11.8159 38.858 11.8165 38.956 11.8624 39.0241C15.1604 38.8597 19.2283 38.8492 22.5719 38.863L22.5708 44.7485C22.5706 45.713 22.5185 46.7075 22.5719 47.669C22.6126 48.5101 23.6709 49.0265 24.3571 49.6019L35.2543 58.6904C36.5634 59.7873 37.9573 60.8519 39.1914 62.0326C38.7086 62.4584 38.1847 62.8388 37.6888 63.2498L15.3423 81.7364C14.6514 82.2952 13.3487 83.2162 12.8083 83.8396C11.2008 81.6113 11.5978 79.6733 11.5987 77.0609L11.5993 42.4047C11.5991 41.2895 11.6337 40.1641 11.6002 39.0498C11.5712 38.9459 11.5738 39.0007 11.5998 38.8859L11.8035 38.7773Z" fill="#9A77F0"/>
<path d="M11.8023 38.7773C11.8146 38.858 11.8153 38.956 11.8612 39.0241C15.1592 38.8597 19.227 38.8492 22.5707 38.863L22.5696 44.7485C22.5694 45.713 22.5173 46.7075 22.5707 47.669C22.518 48.6862 21.1808 46.936 20.5407 46.3964L14.8202 41.6279C14.1736 41.0813 12.2407 39.341 11.599 39.0498C11.57 38.9459 11.5725 39.0007 11.5986 38.8859L11.8023 38.7773Z" fill="#B6ACF4"/>
<path d="M73.7281 38.9992C74.7431 39.1164 75.8073 39.0532 76.8301 39.0536L82.2192 39.0502C82.6809 39.0493 84.0511 38.8222 84.3909 39.0521C84.4809 39.4031 84.3907 41.0572 84.3907 41.5374L84.3913 76.538C84.3909 78.9369 84.8279 81.9223 83.0789 83.8419C82.1253 82.9406 81.0592 82.1422 80.0476 81.3073L63.1398 67.3138C61.0139 65.5503 58.8569 63.8208 56.75 62.0349C58.4028 60.498 60.2111 59.0971 61.9385 57.6442L70.4414 50.358C71.492 49.4437 72.7676 48.6725 73.7281 47.6713C73.8003 46.752 73.7308 45.7736 73.7304 44.8468L73.7281 38.9992Z" fill="#9A77F0"/>
<path d="M73.7266 38.9992C74.7415 39.1164 75.8058 39.0532 76.8286 39.0536L82.2177 39.0502C82.6793 39.0493 84.0496 38.8222 84.3893 39.0521C83.3939 39.6534 82.5143 40.5292 81.6145 41.264L74.5735 46.9501C74.2932 47.1841 74.0247 47.4637 73.7266 47.6713C73.7987 46.752 73.7292 45.7736 73.7288 44.8468L73.7266 38.9992Z" fill="#B6ACF4"/>
<path d="M39.1878 62.0339C40.9831 60.6282 42.7351 59.1572 44.5175 57.7334C48.6625 54.4215 48.5137 55.2297 52.2835 58.3639L56.75 62.0339C58.8569 63.8198 61.0139 65.5493 63.1398 67.3127L80.0476 81.3062C81.0592 82.1412 82.1253 82.9395 83.0789 83.8409C81.0309 85.8957 78.076 85.3017 75.3762 85.3022L18.2354 85.3032C15.8941 85.3099 14.6662 85.5865 12.8047 83.8409C13.3451 83.2174 14.6478 82.2964 15.3387 81.7377L37.6852 63.2511C38.1811 62.8401 38.705 62.4597 39.1878 62.0339Z" fill="#6E41E2"/>
<path d="M22.571 29.7654C22.9195 28.4865 22.2687 24.8574 22.7564 22.7724C23.4078 19.9881 25.498 20.1607 27.7694 20.1137C29.5986 20.0758 32.7545 20.2961 34.4242 20.0801L34.4881 20.0713C35.029 20.1752 35.9727 20.0734 36.568 20.0724L55.1555 20.0711C57.293 20.0713 59.4533 20.1424 61.5875 20.0713C62.1597 20.2247 62.7539 20.0715 63.334 20.067C65.057 20.0535 70.1305 19.9104 71.4357 20.4328C75.2457 21.9577 72.8026 27.7539 73.7307 30.1997C73.7624 33.1316 73.7303 36.0669 73.7307 38.9992L73.733 44.8468C73.7333 45.7736 73.8029 46.752 73.7307 47.6713C72.7701 48.6726 71.4946 49.4437 70.444 50.358L61.9411 57.6442C60.2136 59.0972 58.4054 60.498 56.7526 62.0349L52.2861 58.365C48.5163 55.2307 48.6651 54.4226 44.5201 57.7344C42.7377 59.1583 40.9857 60.6292 39.1904 62.0349C37.9563 60.8542 36.5624 59.7896 35.2533 58.6927L24.3561 49.6042C23.6699 49.0288 22.6117 48.5124 22.571 47.6713C22.5175 46.7098 22.5696 45.7153 22.5698 44.7508L22.571 38.8654C22.6025 37.8675 22.5713 36.8584 22.5713 35.8594L22.571 29.7654Z" fill="white"/>
<path d="M67.5244 21.0488C68.3377 21.0626 69.1219 21.0925 69.7744 21.1494C70.4654 21.2097 70.8912 21.292 71.0645 21.3613C71.7411 21.6323 72.1151 22.0661 72.3438 22.6328C72.5904 23.2442 72.6729 24.0294 72.6641 24.9609C72.6549 25.9286 72.5606 26.808 72.5176 27.8135C72.4817 28.6521 72.483 29.58 72.7314 30.3672C72.7603 33.2403 72.7301 36.1037 72.7305 38.999V39L72.7334 44.8477C72.7338 45.7332 72.784 46.4805 72.7549 47.2266C72.3891 47.5722 71.9735 47.9037 71.5166 48.25C70.9726 48.6623 70.3503 49.1142 69.793 49.5986L61.29 56.8848C59.8215 58.1197 58.2159 59.3781 56.7188 60.7129L52.9248 57.5957H52.9258C52.054 56.8709 51.259 56.1529 50.6895 55.6973C50.094 55.221 49.465 54.7883 48.7295 54.6494C47.9408 54.5005 47.2112 54.7162 46.4746 55.1162C45.759 55.5049 44.9273 56.1287 43.8955 56.9531C42.3032 58.2252 40.7971 59.4801 39.2383 60.7197C38.1377 59.7342 36.948 58.8076 35.8955 57.9258L35.8936 57.9248L24.9971 48.8359H24.9961C24.7925 48.6654 24.5667 48.503 24.3809 48.3682C24.181 48.2232 24.0156 48.1014 23.874 47.9795C23.7324 47.8575 23.6502 47.7652 23.6055 47.6973C23.585 47.6661 23.5767 47.6455 23.5732 47.6357C23.5703 47.6274 23.5694 47.6243 23.5693 47.623V47.6162L23.5547 47.2686C23.5301 46.4609 23.5701 45.6607 23.5703 44.751L23.5713 38.8652C23.6018 37.8584 23.5713 36.8045 23.5713 35.8594V29.877C23.6655 29.4383 23.6826 28.9139 23.6787 28.4189C23.6741 27.8429 23.6388 27.1764 23.6104 26.5273C23.5507 25.1666 23.5239 23.8833 23.7305 23C23.8658 22.4215 24.059 22.0678 24.2539 21.8408C24.4442 21.6193 24.6791 21.4676 24.9854 21.3604C25.6805 21.117 26.5509 21.139 27.79 21.1133C28.6783 21.0949 29.8805 21.1392 31.1377 21.1631C32.3243 21.1857 33.5726 21.1898 34.4873 21.0791C34.8382 21.1233 35.2264 21.1208 35.541 21.1104C35.9753 21.0959 36.2876 21.0727 36.5693 21.0723L36.5684 21.0713H55.1553C57.2019 21.0715 59.3734 21.1376 61.4844 21.0732C61.8725 21.1537 62.236 21.1455 62.5254 21.126C62.8176 21.1063 62.9855 21.084 63.1602 21.0732L63.3418 21.0674C64.2248 21.0605 65.8939 21.0213 67.5244 21.0488Z" stroke="#CCCCCC" stroke-opacity="0.15" stroke-width="2"/>
<path d="M33.1084 35.9552C33.9652 35.9016 34.8469 35.9541 35.7071 35.9545L51.8638 35.9531C52.6815 35.9528 55.5247 35.8525 56.0959 36.0131C57.4931 36.4061 57.1369 38.205 55.9642 38.7797C55.4299 38.8292 54.8646 38.781 54.3259 38.7806L39.4573 38.7803C38.5763 38.7803 33.4065 38.8851 32.9117 38.691C31.4706 38.1263 31.8677 36.4337 33.1084 35.9552Z" fill="#CCCCCC"/>
<path d="M61.3027 29.7623C62.049 29.7305 63.0125 29.5773 63.6243 30.098C64.2249 30.6093 64.2796 31.5308 63.7243 32.0975C62.9265 32.9121 60.6101 32.5863 59.5614 32.5863L34.7688 32.5857C34.071 32.5791 32.9593 32.6826 32.4011 32.1942C31.8273 31.6921 31.8853 30.694 32.4009 30.1745C33.1106 29.4599 35.5923 29.7631 36.5287 29.7633L61.3027 29.7623Z" fill="#CCCCCC"/>
<path d="M42.8305 41.9758L60.9881 41.9733C62.0942 41.9722 64.0101 41.6793 64.122 43.3766C64.2497 45.3107 61.3116 44.8143 60.1894 44.8138L53.5114 44.8149L35.5851 44.8168C34.7063 44.8172 33.1856 45.0733 32.4591 44.4478C31.852 43.9252 31.9069 42.9414 32.4535 42.3982C33.1894 41.667 35.7169 41.9743 36.6831 41.9741L42.8305 41.9758Z" fill="#CCCCCC"/>
<path d="M33.3764 48.0404L59.0737 48.0395C60.0238 48.0393 62.6264 47.7982 63.4072 48.292C64.6734 49.0932 64.1105 50.614 62.8198 50.9049C62.3448 50.9474 61.8579 50.9125 61.3813 50.9095L35.4639 50.9058C34.3306 50.9058 32.2565 51.2665 31.982 49.7245C31.8249 48.8431 32.5724 48.1786 33.3764 48.0404Z" fill="#CCCCCC"/>
</svg>
