<svg width="16" height="16" viewBox="0 0 16 16" fill="none" xmlns="http://www.w3.org/2000/svg">
<g opacity="0.7">
<path d="M5.90473 8.33733C4.24673 7.09733 3.06406 5.73333 2.41806 4.96667C2.21806 4.72933 2.15273 4.55533 2.11339 4.24933C1.97873 3.20133 1.91139 2.67733 2.21873 2.33867C2.52606 2 3.06939 2 4.15606 2H11.8441C12.9307 2 13.4741 2 13.7814 2.338C14.0887 2.67667 14.0214 3.20067 13.8867 4.24867C13.8467 4.55467 13.7814 4.72867 13.5821 4.966C12.9354 5.734 11.7507 7.10067 10.0887 8.34267C10.0119 8.40247 9.94834 8.47765 9.9022 8.5634C9.85605 8.64915 9.8283 8.74358 9.82073 8.84067C9.65606 10.6613 9.50406 11.6587 9.40939 12.1627C9.25673 12.9773 8.10273 13.4673 7.48406 13.904C7.11606 14.164 6.66939 13.8547 6.62206 13.452C6.44504 11.9177 6.29524 10.3803 6.17273 8.84067C6.16588 8.74266 6.13848 8.64719 6.0923 8.56047C6.04613 8.47375 5.98222 8.39773 5.90473 8.33733Z" stroke="#666666" stroke-width="1.5" stroke-linecap="round" stroke-linejoin="round"/>
</g>
</svg>
