<svg width="60" height="60" viewBox="0 0 60 60" fill="none" xmlns="http://www.w3.org/2000/svg">
<path d="M55.4804 0H45.7266V14.1337H59.9989V3.98533C60.0027 3.98533 59.2936 0.385429 55.4804 0Z" fill="#1967D2"/>
<path d="M45.7266 59.9344V59.9691V59.9999L59.9989 45.8662H59.871L45.7266 59.9344Z" fill="#1967D2"/>
<path d="M60.0029 45.866V45.7393L59.875 45.866H60.0029Z" fill="#FBBC05"/>
<path d="M59.9989 14.1338H45.7266V45.739H59.9989V14.1338Z" fill="#FBBC05"/>
<path d="M59.871 45.8662H45.7266V59.9344L59.871 45.8662Z" fill="#EA4335"/>
<path d="M45.7266 45.866H59.871L59.9989 45.7393H45.7266V45.866Z" fill="#EA4335"/>
<path d="M45.6953 59.9691H45.7299V59.9346L45.6953 59.9691Z" fill="#34A853"/>
<path d="M13.9531 45.7393V59.9693H45.6948L45.7296 45.7393H13.9531Z" fill="#34A853"/>
<path d="M45.7299 45.8664V45.7393L45.6953 59.9693L45.7299 59.9346V45.8664Z" fill="#34A853"/>
<path d="M0 45.7393V55.6332C0.127881 58.8438 3.60004 59.9693 3.60004 59.9693H13.9507V45.7393H0Z" fill="#188038"/>
<path d="M13.9507 14.1337H45.7272V0H4.00307C4.00307 0 0.255762 0.385429 0 4.36691V45.7388H13.9507V14.1337Z" fill="#4285F4"/>
<path d="M24.3533 39.3414C23.6263 39.3414 22.9253 39.2467 22.2502 39.0573C21.5925 38.8679 20.9867 38.5839 20.4328 38.2051C19.8789 37.8091 19.3856 37.3185 18.9528 36.7332C18.5374 36.1478 18.2172 35.4678 17.9922 34.6931L21.1857 33.4277C21.4107 34.2885 21.7915 34.9427 22.3281 35.3903C22.8647 35.8207 23.5398 36.0359 24.3533 36.0359C24.7168 36.0359 25.063 35.9843 25.3919 35.881C25.7207 35.7605 26.0063 35.5969 26.2487 35.3903C26.491 35.1837 26.6814 34.9427 26.8199 34.6673C26.9756 34.3746 27.0535 34.0475 27.0535 33.686C27.0535 32.9285 26.7679 32.3345 26.1967 31.9041C25.6428 31.4737 24.8726 31.2585 23.886 31.2585H22.3541V28.1855H23.7561C24.1023 28.1855 24.4398 28.1425 24.7687 28.0564C25.0976 27.9703 25.3832 27.8412 25.6255 27.669C25.8852 27.4797 26.0842 27.2472 26.2227 26.9718C26.3785 26.6791 26.4564 26.3434 26.4564 25.9647C26.4564 25.3793 26.2487 24.9059 25.8332 24.5444C25.4178 24.1656 24.8553 23.9762 24.1456 23.9762C23.384 23.9762 22.7955 24.1828 22.3801 24.596C21.9819 24.992 21.705 25.4396 21.5492 25.9388L18.4336 24.6735C18.5894 24.2431 18.823 23.8041 19.1346 23.3565C19.4462 22.8916 19.8356 22.4785 20.303 22.1169C20.7876 21.7382 21.3502 21.4369 21.9906 21.2131C22.631 20.9721 23.3667 20.8516 24.1975 20.8516C25.0457 20.8516 25.8159 20.9721 26.5083 21.2131C27.218 21.4541 27.8238 21.7898 28.3258 22.2202C28.8277 22.6334 29.2172 23.1327 29.4941 23.718C29.7711 24.2861 29.9095 24.9059 29.9095 25.5773C29.9095 26.0938 29.8403 26.5586 29.7018 26.9718C29.5807 27.385 29.4162 27.7551 29.2085 28.0822C29.0008 28.4093 28.7585 28.6934 28.4815 28.9344C28.2219 29.1582 27.9536 29.339 27.6767 29.4767V29.6833C28.5075 30.0104 29.1912 30.5355 29.7278 31.2585C30.2817 31.9816 30.5586 32.894 30.5586 33.9958C30.5586 34.7706 30.4115 35.485 30.1173 36.1392C29.823 36.7762 29.3989 37.3357 28.845 37.8178C28.3084 38.2998 27.6594 38.6699 26.8977 38.9282C26.1361 39.2036 25.288 39.3414 24.3533 39.3414Z" fill="#4285F4"/>
<path d="M36.7589 38.9282V25.2416L33.6173 26.5586L32.371 23.6922L37.5897 21.2647H40.1601V38.9282H36.7589Z" fill="#4285F4"/>
</svg>
