<svg width="20" height="20" viewBox="0 0 20 20" fill="none" xmlns="http://www.w3.org/2000/svg">
<path d="M13.584 0C13.7623 1.21667 13.269 2.40833 12.6173 3.25C11.9215 4.15 10.7257 4.85 9.56733 4.81667C9.35567 3.65 9.899 2.45833 10.559 1.65C11.2832 0.758333 12.5257 0.0833333 13.584 0.00833333V0ZM14.0007 5C15.3257 5 16.7257 5.72833 17.7257 6.98333C14.4507 8.79167 14.984 13.5167 18.2923 14.7833C17.9482 15.6133 17.5265 16.4083 17.034 17.1583C16.2157 18.4167 15.059 19.9833 13.634 20C13.0457 20.0058 12.659 19.8275 12.2423 19.635C11.7598 19.4125 11.234 19.1708 10.309 19.1758C9.39233 19.18 8.859 19.4192 8.36733 19.6392C7.94067 19.8308 7.54733 20.0083 6.959 20.0025C5.52567 19.99 4.434 18.5775 3.61733 17.3192C1.32567 13.8025 1.09233 9.66917 2.50067 7.48583C3.50067 5.9275 5.084 5.01083 6.57567 5.01083C7.369 5.01083 8.009 5.24083 8.61733 5.46C9.17067 5.65917 9.70067 5.84917 10.2923 5.84917C10.844 5.84917 11.3007 5.67583 11.7923 5.48667C12.3873 5.25917 13.0423 5.00917 14.0007 5.00917V5Z" fill="#333333"/>
</svg>
