<svg width="16" height="16" viewBox="0 0 16 16" fill="none" xmlns="http://www.w3.org/2000/svg">
<g opacity="0.7">
<path d="M2.66602 5.33333H7.99935M13.3327 7.66667V12C13.3327 12.3536 13.1922 12.6928 12.9422 12.9428C12.6921 13.1929 12.353 13.3333 11.9993 13.3333H3.99935C3.64573 13.3333 3.30659 13.1929 3.05654 12.9428C2.80649 12.6928 2.66602 12.3536 2.66602 12V4C2.66602 3.64638 2.80649 3.30724 3.05654 3.05719C3.30659 2.80714 3.64573 2.66667 3.99935 2.66667H8.33268M5.33268 2.66667V5.33333M10.666 5.33333L13.9993 2M13.9993 2V5M13.9993 2H10.9993" stroke="#333333" stroke-width="1.5" stroke-linecap="round" stroke-linejoin="round"/>
</g>
</svg>
