<svg width="24" height="24" viewBox="0 0 24 24" fill="none" xmlns="http://www.w3.org/2000/svg">
<path d="M13.112 7.50806C13.3609 7.23424 13.4998 6.87808 13.502 6.50806C13.502 6.46006 13.502 6.40806 13.496 6.36406C13.2951 6.37882 13.0992 6.43392 12.92 6.52606C12.6558 6.65351 12.4308 6.84992 12.2689 7.09456C12.107 7.33921 12.0141 7.62302 12 7.91606C11.9999 7.96121 12.003 8.00631 12.009 8.05106C12.223 8.05598 12.435 8.00918 12.627 7.91465C12.819 7.82012 12.9854 7.68064 13.112 7.50806ZM9.777 12.5861C9.92627 12.8106 10.0996 13.0182 10.294 13.2051C10.3769 13.2944 10.4771 13.3661 10.5884 13.4156C10.6998 13.4651 10.8201 13.4914 10.942 13.4931C11.1357 13.4747 11.3252 13.4251 11.503 13.3461C11.7079 13.258 11.928 13.2111 12.151 13.2081C12.3682 13.2133 12.5824 13.2602 12.782 13.3461C12.9663 13.4296 13.1648 13.4775 13.367 13.4871C13.6051 13.475 13.8305 13.3757 14 13.2081C14.1861 13.027 14.3514 12.8257 14.493 12.6081C14.6435 12.391 14.7721 12.1595 14.877 11.9171C14.9223 11.8124 14.9633 11.7034 15 11.5901C14.8184 11.5115 14.6519 11.4019 14.508 11.2661C14.3279 11.0991 14.1899 10.8918 14.1052 10.6613C14.0206 10.4308 13.9917 10.1835 14.021 9.93961C14.0502 9.69577 14.1368 9.46232 14.2736 9.25834C14.4104 9.05437 14.5935 8.88568 14.808 8.76606C14.6528 8.55136 14.4502 8.3754 14.2159 8.2519C13.9815 8.1284 13.7218 8.06069 13.457 8.05406C13.1799 8.0454 12.9041 8.09444 12.647 8.19806C12.4534 8.27899 12.2525 8.34128 12.047 8.38406C11.862 8.35415 11.6815 8.30072 11.51 8.22506C11.295 8.13281 11.0656 8.079 10.832 8.06606C10.5228 8.07012 10.2202 8.15603 9.955 8.31506C9.68685 8.47608 9.4639 8.70247 9.307 8.97306C9.09231 9.34982 8.98606 9.77864 9 10.2121C9.00578 10.6512 9.08382 11.0863 9.231 11.5001C9.36066 11.8861 9.5445 12.2517 9.777 12.5861ZM21.489 4.08106H2.51C2.44294 4.08106 2.37654 4.09428 2.3146 4.11997C2.25266 4.14567 2.19639 4.18332 2.14902 4.23078C2.10165 4.27825 2.06411 4.33459 2.03854 4.39658C2.01296 4.45857 1.99987 4.525 2 4.59206V17.4601C1.99987 17.5271 2.01296 17.5935 2.03854 17.6555C2.06411 17.7175 2.10165 17.7739 2.14902 17.8213C2.19639 17.8688 2.25266 17.9064 2.3146 17.9321C2.37654 17.9578 2.44294 17.9711 2.51 17.9711H10.291L10.178 19.6611C10.1655 19.8726 10.0717 20.0712 9.916 20.2151L9.125 20.9151C9.1003 20.9364 9.08274 20.9648 9.07466 20.9965C9.06658 21.0281 9.06838 21.0615 9.07981 21.0921C9.09124 21.1227 9.11175 21.149 9.1386 21.1676C9.16545 21.1862 9.19734 21.1961 9.23 21.1961H14.77C14.8025 21.1953 14.8339 21.1848 14.8603 21.1658C14.8866 21.1467 14.9065 21.1202 14.9173 21.0896C14.9282 21.059 14.9295 21.0258 14.921 20.9944C14.9126 20.9631 14.8948 20.9351 14.87 20.9141L14.07 20.2141C13.9893 20.1426 13.9238 20.0555 13.8776 19.958C13.8314 19.8606 13.8053 19.7548 13.801 19.6471L13.701 17.9671H21.484C21.5512 17.9678 21.6179 17.9553 21.6803 17.9303C21.7427 17.9052 21.7995 17.868 21.8474 17.8209C21.8954 17.7738 21.9336 17.7176 21.9598 17.6557C21.9859 17.5938 21.9996 17.5273 22 17.4601V4.59206C22.0001 4.52491 21.987 4.45841 21.9614 4.39635C21.9357 4.33429 21.8981 4.27791 21.8506 4.23043C21.8032 4.18295 21.7468 4.14532 21.6847 4.11969C21.6227 4.09405 21.5561 4.08092 21.489 4.08106ZM12 4.21406C12.0244 4.21281 12.0489 4.21638 12.0719 4.22458C12.0949 4.23277 12.1162 4.24543 12.1343 4.26182C12.1525 4.27821 12.1672 4.29801 12.1777 4.3201C12.1882 4.34219 12.1943 4.36613 12.1955 4.39056C12.1967 4.41498 12.1932 4.43941 12.185 4.46246C12.1768 4.4855 12.1641 4.50671 12.1477 4.52486C12.1314 4.54301 12.1115 4.55776 12.0895 4.56826C12.0674 4.57876 12.0434 4.58481 12.019 4.58606H11.981C11.9317 4.58354 11.8854 4.56152 11.8523 4.52486C11.8192 4.4882 11.802 4.43989 11.8045 4.39056C11.807 4.34123 11.829 4.29492 11.8657 4.26182C11.9024 4.22872 11.9507 4.21154 12 4.21406ZM21.36 15.1391H2.64V4.72106H21.36V15.1391Z" fill="#333333"/>
</svg>
