<svg width="16" height="16" viewBox="0 0 16 16" fill="none" xmlns="http://www.w3.org/2000/svg">
<g opacity="0.7">
<path d="M13.9894 3.33333C14.0227 2.86 13.9827 2.55933 13.7814 2.338C13.4747 2 12.9307 2 11.8441 2H4.15606C3.06939 2 2.52606 2 2.21873 2.338C1.91139 2.67667 1.97873 3.20067 2.11339 4.24867C2.15339 4.55467 2.21873 4.72867 2.41806 4.966C3.06406 5.73267 4.24606 7.09733 5.90473 8.33733C6.05673 8.45067 6.15606 8.636 6.17273 8.84067C6.35939 11.124 6.53073 12.684 6.62206 13.452C6.66939 13.8547 7.11606 14.1647 7.48406 13.904C8.10206 13.4673 9.25739 12.9773 9.40939 12.1627C9.46606 11.8627 9.54273 11.3867 9.63006 10.6667" stroke="#333333" stroke-width="1.5" stroke-linecap="round" stroke-linejoin="round"/>
<path d="M10.0113 4L9.67794 5.38933L10.2313 5.044C10.6379 4.73448 11.1349 4.56702 11.6459 4.56733C12.9473 4.56733 14.0026 5.634 14.0026 6.95067C14.0026 8.26667 12.9473 9.33333 11.6459 9.33333C10.5059 9.33333 9.5546 8.51467 9.33594 7.42667" stroke="#333333" stroke-width="1.5" stroke-linecap="round" stroke-linejoin="round"/>
</g>
</svg>
