<svg width="20" height="20" viewBox="0 0 20 20" fill="none" xmlns="http://www.w3.org/2000/svg">
<path d="M10.0018 15.5641C13.0748 15.5641 15.5659 13.0729 15.5659 9.99984C15.5659 6.9268 13.0748 4.43555 10.0018 4.43555C6.92875 4.43555 4.4375 6.9268 4.4375 9.99984C4.4375 13.0729 6.92867 15.5641 10.0017 15.5641" fill="white"/>
<path d="M2.80378 7.26578C2.38868 6.54677 1.90076 5.79216 1.34003 5.00195C0.462196 6.52206 2.98185e-05 8.24649 1.44285e-09 10.0019C-2.98156e-05 11.7572 0.462078 13.4817 1.33986 15.0018C2.21765 16.522 3.48017 17.7842 5.0005 18.6617C6.52082 19.5391 8.24537 20.0009 10.0007 20.0005C10.9211 18.7096 11.546 17.7789 11.8754 17.2083C12.5081 16.1123 13.3264 14.5433 14.3303 12.5012V12.5C13.8918 13.2604 13.2607 13.8919 12.5006 14.3311C11.7405 14.7702 10.8782 15.0015 10.0004 15.0016C9.12255 15.0017 8.26017 14.7707 7.49994 14.3318C6.73972 13.8929 6.10846 13.2616 5.66964 12.5013C4.3062 9.95852 3.35092 8.21328 2.80378 7.26578Z" fill="#229342"/>
<path d="M10.0018 19.9995C11.315 19.9997 12.6155 19.7412 13.8288 19.2387C15.0421 18.7363 16.1445 17.9997 17.0731 17.0711C18.0017 16.1424 18.7382 15.0399 19.2406 13.8266C19.743 12.6133 20.0015 11.3128 20.0012 9.99957C20.0008 8.24418 19.5383 6.51982 18.6603 4.9998C16.7659 4.81309 15.3679 4.71973 14.4661 4.71973C13.4436 4.71973 11.9553 4.81309 10.0011 4.9998L10 5.00059C10.8778 5.00015 11.7403 5.23088 12.5007 5.66956C13.2611 6.10823 13.8925 6.7394 14.3316 7.49957C14.7706 8.25974 15.0018 9.12212 15.0017 9.99997C15.0017 10.8778 14.7706 11.7402 14.3315 12.5004L10.0018 19.9995Z" fill="#FBC116"/>
<path d="M9.99766 13.9592C12.1839 13.9592 13.9562 12.1869 13.9562 10.0006C13.9562 7.81426 12.1839 6.04199 9.99758 6.04199C7.81141 6.04199 6.03906 7.81434 6.03906 10.0006C6.03906 12.1868 7.81141 13.9592 9.99766 13.9592Z" fill="#1A73E8"/>
<path d="M10.0038 5.00034H18.6629C17.7854 3.47999 16.5232 2.21746 15.003 1.3397C13.4828 0.461934 11.7584 -0.000118753 10.003 2.28936e-08C8.2476 0.000118798 6.52319 0.462405 5.00314 1.34037C3.48309 2.21834 2.22099 3.48104 1.34375 5.00151L5.67336 12.5007L5.67453 12.5014C5.23528 11.7413 5.00388 10.879 5.00363 10.0012C5.00337 9.12335 5.23425 8.26092 5.67306 7.50062C6.11187 6.74033 6.74313 6.10898 7.50336 5.67006C8.26359 5.23114 9.12599 5.00013 10.0038 5.00026L10.0038 5.00034Z" fill="#E33B2E"/>
</svg>
