<svg width="68" height="58" viewBox="0 0 68 58" fill="none" xmlns="http://www.w3.org/2000/svg">
<path d="M0 53.3604C0 55.924 2.00897 58.0004 4.48419 58.0004H4.54864C2.03552 58.0004 0 55.924 0 53.3604Z" fill="#FBBC05"/>
<path d="M38.5387 17.4V29.5143L54.205 16.3406V4.64001C54.205 2.0764 52.196 0 49.7208 0H15.7803L15.75 17.4H38.5387Z" fill="#FBBC05"/>
<path d="M38.5406 41.6319H15.714L15.6875 57.9995H49.7227C52.2017 57.9995 54.2069 55.9231 54.2069 53.3595V42.7957L38.5406 29.5176V41.6319Z" fill="#34A853"/>
<path d="M15.7762 0L0 17.4H15.7497L15.7762 0Z" fill="#EA4335"/>
<path d="M0 41.6328V53.3604C0 55.924 2.03552 58.0004 4.54864 58.0004H15.6814L15.708 41.6328H0Z" fill="#1967D2"/>
<path d="M15.7497 17.4004H0V41.6328H15.708L15.7497 17.4004Z" fill="#4285F4"/>
<path d="M67.9741 49.2341V9.40739C67.0909 4.12165 61.5302 10.1807 61.5302 10.1807L54.2031 16.3403V42.7922L64.6915 51.6817C68.4783 52.1999 67.9741 49.2341 67.9741 49.2341Z" fill="#34A853"/>
<path d="M38.5391 29.5146L54.2091 42.7966V16.3447L38.5391 29.5146Z" fill="#188038"/>
</svg>
