<svg width="24" height="24" viewBox="0 0 24 24" fill="none" xmlns="http://www.w3.org/2000/svg">
<path d="M4 20C3.45 20 2.97933 19.8043 2.588 19.413C2.19667 19.0217 2.00067 18.5507 2 18V6C2 5.45 2.196 4.97933 2.588 4.588C2.98 4.19667 3.45067 4.00067 4 4H9.175C9.44167 4 9.696 4.05 9.938 4.15C10.18 4.25 10.3923 4.39167 10.575 4.575L12 6H20C20.55 6 21.021 6.196 21.413 6.588C21.805 6.98 22.0007 7.45067 22 8V18C22 18.55 21.8043 19.021 21.413 19.413C21.0217 19.805 20.5507 20.0007 20 20H4ZM4 18H20V8H11.175L9.175 6H4V18ZM12.2 14L11.275 14.925C11.0917 15.1083 11 15.3417 11 15.625C11 15.9083 11.0917 16.1417 11.275 16.325C11.4583 16.5083 11.6917 16.6 11.975 16.6C12.2583 16.6 12.4917 16.5083 12.675 16.325L15.3 13.7C15.5 13.5 15.6 13.2667 15.6 13C15.6 12.7333 15.5 12.5 15.3 12.3L12.675 9.675C12.4917 9.49167 12.2583 9.4 11.975 9.4C11.6917 9.4 11.4583 9.49167 11.275 9.675C11.0917 9.85833 11 10.0917 11 10.375C11 10.6583 11.0917 10.8917 11.275 11.075L12.2 12H9C8.71667 12 8.47933 12.096 8.288 12.288C8.09667 12.48 8.00067 12.7173 8 13C7.99933 13.2827 8.09533 13.5203 8.288 13.713C8.48067 13.9057 8.718 14.0013 9 14H12.2Z" fill="#666666"/>
</svg>
