<svg width="60" height="60" viewBox="0 0 60 60" fill="none" xmlns="http://www.w3.org/2000/svg">
<rect x="18.75" width="37.5" height="60" rx="2" fill="#1066B5"/>
<rect x="18.75" width="37.5" height="60" rx="2" fill="url(#paint0_linear_3408_18196)"/>
<rect x="18.75" y="6.42871" width="18.75" height="21.4286" fill="#32A9E7"/>
<rect x="18.75" y="27.8574" width="18.75" height="21.4286" fill="#167EB4"/>
<rect x="37.5" y="27.8574" width="18.75" height="21.4286" fill="#32A9E7"/>
<rect x="37.5" y="6.42871" width="18.75" height="21.4286" fill="#58D9FD"/>
<mask id="mask0_3408_18196" style="mask-type:alpha" maskUnits="userSpaceOnUse" x="15" y="25" width="45" height="35">
<path d="M15 25.7139H58C59.1046 25.7139 60 26.6093 60 27.7139V57.9996C60 59.1042 59.1046 59.9996 58 59.9996H17C15.8954 59.9996 15 59.1041 15 57.9996V25.7139Z" fill="url(#paint1_linear_3408_18196)"/>
</mask>
<g mask="url(#mask0_3408_18196)">
<path d="M60 25.7139V34.2853H56.25V25.7139H60Z" fill="#135298"/>
<path d="M60 60V30L13.125 60H60Z" fill="url(#paint2_linear_3408_18196)"/>
<path d="M15 60V30L61.875 60H15Z" fill="url(#paint3_linear_3408_18196)"/>
</g>
<path d="M15 18C15 16.3431 16.3431 15 18 15H34.5C36.1569 15 37.5 16.3431 37.5 18V50.5714C37.5 52.2283 36.1569 53.5714 34.5 53.5714H15V18Z" fill="black" fill-opacity="0.3"/>
<rect y="10.7139" width="33.75" height="38.5714" rx="2" fill="url(#paint4_linear_3408_18196)"/>
<path d="M26.25 30.1488V29.7927C26.25 23.6193 22.3635 19.2861 16.9047 19.2861C11.4161 19.2861 7.5 23.649 7.5 29.852V30.2082C7.5 36.3815 11.3865 40.7147 16.875 40.7147C22.3339 40.7147 26.25 36.3518 26.25 30.1488ZM21.8295 30.2082C21.8295 34.3039 19.8121 36.7673 16.9047 36.7673C13.9972 36.7673 11.9502 34.2446 11.9502 30.1488V29.7927C11.9502 25.6969 13.9676 23.2335 16.875 23.2335C19.7528 23.2335 21.8295 25.7563 21.8295 29.852V30.2082Z" fill="white"/>
<defs>
<linearGradient id="paint0_linear_3408_18196" x1="18.75" y1="30" x2="56.25" y2="30" gradientUnits="userSpaceOnUse">
<stop stop-color="#064484"/>
<stop offset="1" stop-color="#0F65B5"/>
</linearGradient>
<linearGradient id="paint1_linear_3408_18196" x1="15" y1="53.0765" x2="60" y2="53.0765" gradientUnits="userSpaceOnUse">
<stop stop-color="#1B366F"/>
<stop offset="1" stop-color="#2657B0"/>
</linearGradient>
<linearGradient id="paint2_linear_3408_18196" x1="60" y1="45" x2="15" y2="45" gradientUnits="userSpaceOnUse">
<stop stop-color="#44DCFD"/>
<stop offset="0.453125" stop-color="#259ED0"/>
</linearGradient>
<linearGradient id="paint3_linear_3408_18196" x1="15" y1="45" x2="60" y2="45" gradientUnits="userSpaceOnUse">
<stop stop-color="#259ED0"/>
<stop offset="1" stop-color="#44DCFD"/>
</linearGradient>
<linearGradient id="paint4_linear_3408_18196" x1="0" y1="29.9996" x2="33.75" y2="29.9996" gradientUnits="userSpaceOnUse">
<stop stop-color="#064484"/>
<stop offset="1" stop-color="#0F65B5"/>
</linearGradient>
</defs>
</svg>
