<svg width="51" height="51" viewBox="0 0 51 51" fill="none" xmlns="http://www.w3.org/2000/svg">
<circle cx="25.5" cy="25.5" r="25.5" fill="#6E41E2"/>
<path d="M21.8845 25.5002L16.2549 31.1298L14.6301 29.505L17.4907 26.6445H11.7695V24.356H17.4907L14.6301 21.4954L16.2549 19.8706L21.8845 25.5002ZM25.5003 15.2021C21.5985 15.2021 18.2688 16.4265 16.9529 18.1428L17.4907 18.6348L18.6692 19.8592C18.6349 19.8363 18.6349 19.7791 18.6349 19.7791C18.6349 19.207 21.0721 17.4906 25.5003 17.4906C29.9285 17.4906 32.3657 19.207 32.3657 19.7791C32.3657 20.3512 29.9285 22.0675 25.5003 22.0675C22.5024 22.0675 20.4428 21.278 19.413 20.6029L22.983 24.1729C23.784 24.2873 24.6307 24.356 25.5003 24.356C28.235 24.356 30.6837 23.7496 32.3657 22.7998V26.0151C30.8782 27.1021 28.2693 27.7887 25.5003 27.7887C24.4018 27.7887 23.3263 27.6743 22.3422 27.4797L20.4542 29.3563C21.9646 29.814 23.681 30.0771 25.5003 30.0771C28.1091 30.0771 30.5235 29.5622 32.3657 28.6697V31.2214C32.3657 31.7935 29.9285 33.5098 25.5003 33.5098C21.0721 33.5098 18.6349 31.7935 18.6349 31.2214V31.1756L17.4907 32.3656L16.9643 32.8576C18.2802 34.574 21.6099 35.7983 25.5003 35.7983C30.5464 35.7983 34.6541 33.7501 34.6541 31.2214V19.7791C34.6541 17.2503 30.5578 15.2021 25.5003 15.2021Z" fill="white"/>
</svg>
