<svg width="51" height="51" viewBox="0 0 51 51" fill="none" xmlns="http://www.w3.org/2000/svg">
<path d="M17 34L23.1172 27.8828M23.1172 27.8828C24.2708 29.0365 25.8646 29.75 27.625 29.75C31.1458 29.75 34 26.8958 34 23.375C34 19.8542 31.1458 17 27.625 17C24.1042 17 21.25 19.8542 21.25 23.375C21.25 25.1354 21.9635 26.7292 23.1172 27.8828ZM44.625 25.5C44.625 36.0624 36.0624 44.625 25.5 44.625C14.9376 44.625 6.375 36.0624 6.375 25.5C6.375 14.9376 14.9376 6.375 25.5 6.375C36.0624 6.375 44.625 14.9376 44.625 25.5Z" stroke="#6E41E2" stroke-width="2" stroke-linecap="round"/>
</svg>
