<svg width="68" height="68" viewBox="0 0 68 68" fill="none" xmlns="http://www.w3.org/2000/svg">
<rect width="68" height="68" rx="15" fill="#3C82FB"/>
<path d="M47.0157 41.2562L51.1078 44.6456C52.1083 45.4767 52.6086 45.8948 53.0138 45.9894C53.4153 46.0876 53.8384 46.0458 54.2126 45.871C54.5869 45.6961 54.8895 45.3989 55.0699 45.0288C55.25 44.6555 55.25 44.0334 55.25 42.7095V25.2898C55.25 23.9908 55.25 23.3438 55.0699 22.9705C54.8895 22.6005 54.5869 22.3032 54.2126 22.1284C53.8384 21.9536 53.4153 21.9118 53.0138 22.01C52.6086 22.1095 52.1083 22.5077 51.1078 23.3538L47.0157 26.7431C46.561 27.089 46.136 27.4719 45.745 27.8879C45.2082 28.5202 44.8492 29.2826 44.7044 30.0977C44.6333 30.6621 44.6099 31.2315 44.6344 31.7998V36.1896C44.6099 36.7579 44.6333 37.3273 44.7044 37.8917C44.8492 38.7068 45.2082 39.4692 45.745 40.1015C46.1355 40.521 46.5605 40.9072 47.0157 41.2562Z" fill="white"/>
<path d="M12.7548 26.5119C12.7548 24.921 12.7548 24.1231 13.0608 23.5149C13.3297 22.9789 13.7581 22.543 14.2849 22.2694C14.8826 21.958 15.6667 21.958 17.2303 21.958H31.4984C35.5961 21.958 37.6474 21.958 39.211 22.7705C40.5875 23.4857 41.7069 24.6248 42.4098 26.0254C43.2083 27.6164 43.2083 29.7036 43.2083 33.8683V41.4874C43.2083 43.0784 43.2083 43.8763 42.9023 44.4844C42.6334 45.0205 42.205 45.4564 41.6782 45.73C41.0805 46.0413 40.2964 46.0413 38.7328 46.0413H24.46C20.3622 46.0413 18.3109 46.0413 16.7474 45.2288C15.3709 44.5136 14.2514 43.3745 13.5485 41.9739C12.75 40.383 12.75 38.2958 12.75 34.131L12.7548 26.5119Z" fill="white"/>
</svg>
