<svg width="36" height="36" viewBox="0 0 36 36" xmlns="http://www.w3.org/2000/svg">
  <path fill-rule="evenodd" clip-rule="evenodd" d="M21.857 0H3.857C2.834 0 1.853.406 1.13 1.13.406 1.853 0 2.834 0 3.857v18c0 1.023.406 2.004 1.13 2.728.723.723 1.704 1.129 2.727 1.129h3.22V13.809c0-1.79.711-3.507 1.977-4.773 1.266-1.266 2.983-1.977 4.773-1.977h11.916V3.857c0-1.023-.406-2.004-1.13-2.727C23.861.406 22.88 0 21.857 0zm3.857 10.273v.013h.036v11.91c0 1.955-1.584 3.536-3.538 3.536H10.291V13.809c0-1.955 1.584-3.536 3.536-3.536h11.887zm3.25 0h3.179c1.023 0 2.004.407 2.727 1.13.724.724 1.13 1.705 1.13 2.728v18c0 1.023-.406 2.004-1.13 2.727-.723.724-1.704 1.13-2.727 1.13H14.143c-1.023 0-2.004-.406-2.728-1.13-.723-.723-1.129-1.704-1.129-2.727v-3.196h11.926c.887 0 1.765-.175 2.584-.514.82-.34 1.564-.837 2.191-1.464.627-.627 1.124-1.371 1.464-2.191.34-.82.514-1.698.514-2.585V10.286z" fill="#6E41E2"/>
</svg>