<svg width="28" height="28" viewBox="0 0 28 28" fill="none" xmlns="http://www.w3.org/2000/svg">
<circle opacity="0.25" cx="14" cy="14" r="14" fill="#EAEAEA"/>
<path fill-rule="evenodd" clip-rule="evenodd" d="M15.7143 6H7.71429C7.25963 6 6.82359 6.18061 6.5021 6.5021C6.18061 6.82359 6 7.25963 6 7.71429V15.7143C6 16.1689 6.18061 16.605 6.5021 16.9265C6.82359 17.248 7.25963 17.4286 7.71429 17.4286H9.14514V12.1371C9.14514 11.3415 9.46121 10.5784 10.0238 10.0158C10.5864 9.45321 11.3495 9.13714 12.1451 9.13714H17.4286V7.71429C17.4286 7.25963 17.248 6.82359 16.9265 6.5021C16.605 6.18061 16.1689 6 15.7143 6ZM17.4286 10.5657V10.5714H17.4446V15.8651C17.4446 16.7337 16.7406 17.4366 15.872 17.4366H10.5737V12.1371C10.5737 11.2686 11.2777 10.5657 12.1451 10.5657H17.4286ZM18.8731 10.5714H20.2857C20.7404 10.5714 21.1764 10.752 21.4979 11.0735C21.8194 11.395 22 11.8311 22 12.2857V20.2857C22 20.7404 21.8194 21.1764 21.4979 21.4979C21.1764 21.8194 20.7404 22 20.2857 22H12.2857C11.8311 22 11.395 21.8194 11.0735 21.4979C10.752 21.1764 10.5714 20.7404 10.5714 20.2857V18.8651H15.872C16.2661 18.8653 16.6563 18.7878 17.0204 18.6371C17.3845 18.4864 17.7154 18.2655 17.9941 17.9869C18.2728 17.7083 18.4938 17.3775 18.6447 17.0135C18.7955 16.6494 18.8731 16.2592 18.8731 15.8651V10.5714Z" fill="#6E41E2"/>
</svg>
