<svg width="51" height="51" viewBox="0 0 51 51" fill="none" xmlns="http://www.w3.org/2000/svg">
<path fill-rule="evenodd" clip-rule="evenodd" d="M30.9643 0H5.46429C4.01507 0 2.6252 0.5757 1.60045 1.60045C0.5757 2.6252 0 4.01507 0 5.46429L0 30.9643C0 32.4135 0.5757 33.8034 1.60045 34.8281C2.6252 35.8529 4.01507 36.4286 5.46429 36.4286H10.0251V19.5621C10.0251 17.026 11.0326 14.5938 12.8259 12.8004C14.6193 11.0071 17.0515 9.99964 19.5876 9.99964H36.4286V5.46429C36.4286 4.01507 35.8529 2.6252 34.8281 1.60045C33.8034 0.5757 32.4135 0 30.9643 0ZM36.4286 14.5532V14.5714H36.4796V31.4451C36.4796 34.2137 34.2356 36.4541 31.467 36.4541H14.5787V19.5621C14.5787 16.7936 16.8227 14.5532 19.5876 14.5532H36.4286ZM41.0331 14.5714H45.5357C46.9849 14.5714 48.3748 15.1471 49.3995 16.1719C50.4243 17.1966 51 18.5865 51 20.0357V45.5357C51 46.9849 50.4243 48.3748 49.3995 49.3995C48.3748 50.4243 46.9849 51 45.5357 51H20.0357C18.5865 51 17.1966 50.4243 16.1719 49.3995C15.1471 48.3748 14.5714 46.9849 14.5714 45.5357V41.0076H31.467C32.7231 41.0081 33.9669 40.7611 35.1275 40.2808C36.2881 39.8004 37.3427 39.0961 38.2311 38.2081C39.1194 37.3201 39.8241 36.2658 40.3049 35.1054C40.7857 33.945 41.0331 32.7012 41.0331 31.4451V14.5714Z" fill="#6E41E2"/>
</svg>
